<svg viewBox="0 0 250 250" xmlns="http://www.w3.org/2000/svg" xml:space="preserve" style="fill-rule:evenodd;clip-rule:evenodd;stroke-linejoin:round;stroke-miterlimit:2">
  <path d="M108.934 4.487a33.994 33.994 0 0 1 31.622 0 1759.95 1759.95 0 0 1 82.693 46.518 33.996 33.996 0 0 1 16.467 28.136 1661.25 1661.25 0 0 1 0 91.657 33.995 33.995 0 0 1-16.467 28.136 1759.968 1759.968 0 0 1-82.693 46.519 34 34 0 0 1-31.622 0 1759.968 1759.968 0 0 1-82.693-46.519 33.995 33.995 0 0 1-16.467-28.136 1661.25 1661.25 0 0 1 0-91.657 33.997 33.997 0 0 1 16.468-28.136 1759.412 1759.412 0 0 1 82.692-46.518Z" style="fill:#074d39"/>
    <path d="M36.626 87.38a2.993 2.993 0 0 1 2.922-3.642c9.971-.007 37.433-.007 46.874-.007a3.003 3.003 0 0 0 2.992-3.229 34.66 34.66 0 0 1-.025-.321 3.002 3.002 0 0 1 2.988-3.228l115.618-.134a3.001 3.001 0 0 1 3.003 3.053l-.291 16.324a2 2 0 0 1-1.653 1.933c-8.145 1.605-44.166 10.513-44.166 42.402 0 31.22 15.285 34.614 19.309 34.966a.992.992 0 0 1 .953.991c.008 1.716.008 5.307.008 7.055a1 1 0 0 1-1 1H79.136a1 1 0 0 1-1-1v-7.007a1 1 0 0 1 1-.999c3.724-.127 16.578-2.111 16.578-23.178 0-6.575 3.05-27.924-21.136-27.9-26.598-.001-35.553-27.083-37.952-37.079Z" style="fill:#fff;fill-rule:nonzero"/>
    <path d="m144.266 164.293-.542-1.701c-.542.248-1.152.461-1.727.461-.779 0-1.592-.603-1.592-3.048v-8.293c0-3.012-.44-5.316-2.743-7.088-1.389-1.027-2.811-1.382-4.843-1.382-2.811.567-6.401 2.304-8.297 3.651-1.118.886-1.761 1.488-1.761 2.48 0 1.347 1.761 2.623 3.047 2.623 1.05 0 1.829-.355 2.168-1.737.44-1.594.88-2.906 1.49-3.615.44-.567.982-.921 1.626-.921 1.964 0 3.115 1.914 3.115 5.245v1.311c-1.185 1.028-4.876 2.268-7.992 3.438-2.676.992-3.895 2.162-3.895 4.926 0 3.19 2.54 6.627 6.807 6.627.881 0 3.252-1.701 5.284-3.012.169.602.575 1.311 1.253 1.949.711.603 1.693 1.063 3.115 1.063l5.487-2.977Zm-10.059-1.772c-.948.674-1.49.886-2.167.886-1.152 0-3.014-1.027-3.014-3.969 0-1.807.846-2.729 2.404-3.544 1.05-.567 1.897-1.098 2.777-1.63v8.257Zm13.043-29.825v-1.978c-3.489-.456-4.216-1.217-6.033-6.123-3.562-9.508-6.942-19.206-10.431-28.905l-2.798.723-11.158 28.372c-1.853 4.792-2.435 5.477-6.142 5.933l-.073 1.978h12.176v-1.978c-3.962-.532-4.071-1.331-3.271-3.879.618-2.244 1.381-4.298 1.999-6.123h10.539a175.919 175.919 0 0 1 2.29 6.427c.8 2.358.582 3.005-2.653 3.575v1.978h15.555Zm-16.209-14.947h-8.577a436.26 436.26 0 0 1 4.361-11.98h.145l4.071 11.98Z" style="fill:#074d39;fill-rule:nonzero"/>
</svg>
